BitterPro-Black.ufo
<glyph name="parenright" format="2">
  <advance width="323"/>
  <unicode hex="0029"/>
  <guideline x="223" y="-118" angle="0"/>
  <guideline x="298" y="872" angle="0"/>
  <outline>
    <contour>
      <point x="-10" y="-83" type="curve"/>
      <point x="118" y="-158" type="line"/>
      <point x="253" y="1"/>
      <point x="315" y="191"/>
      <point x="315" y="376" type="curve" smooth="yes"/>
      <point x="315" y="561"/>
      <point x="253" y="751"/>
      <point x="118" y="910" type="curve"/>
      <point x="-10" y="835" type="line"/>
      <point x="80" y="698"/>
      <point x="125" y="534"/>
      <point x="125" y="376" type="curve" smooth="yes"/>
      <point x="125" y="217"/>
      <point x="80" y="54"/>
    </contour>
  </outline>
</glyph>
<glyph name="M" format="2">
  <advance width="855"/>
  <unicode hex="004D"/>
  <anchor x="428" y="0" name="bottom"/>
  <anchor x="428" y="710" name="top"/>
  <outline>
    <contour>
      <point x="831" y="610" type="line"/>
      <point x="831" y="710" type="line"/>
      <point x="547" y="705" type="line"/>
      <point x="425" y="383" type="line"/>
      <point x="448" y="383" type="line"/>
      <point x="335" y="710" type="line"/>
      <point x="24" y="705" type="line"/>
      <point x="24" y="605" type="line"/>
      <point x="110" y="571" type="line"/>
      <point x="84" y="620" type="line"/>
      <point x="84" y="95" type="line"/>
      <point x="110" y="134" type="line"/>
      <point x="24" y="100" type="line"/>
      <point x="24" y="0" type="line"/>
      <point x="308" y="0" type="line"/>
      <point x="308" y="100" type="line"/>
      <point x="227" y="131" type="line"/>
      <point x="247" y="95" type="line"/>
      <point x="247" y="496" type="line"/>
      <point x="218" y="496" type="line"/>
      <point x="350" y="178" type="line"/>
      <point x="475" y="183" type="line"/>
      <point x="614" y="495" type="line"/>
      <point x="583" y="496" type="line"/>
      <point x="583" y="95" type="line"/>
      <point x="615" y="135" type="line"/>
      <point x="523" y="100" type="line"/>
      <point x="523" y="0" type="line"/>
      <point x="831" y="0" type="line"/>
      <point x="831" y="100" type="line"/>
      <point x="745" y="134" type="line"/>
      <point x="771" y="95" type="line"/>
      <point x="771" y="620" type="line"/>
      <point x="745" y="569" type="line"/>
    </contour>
  </outline>
</glyph>
<glyph name="S" format="2">
  <advance width="603"/>
  <unicode hex="0053"/>
  <anchor x="307" y="0" name="bottom"/>
  <anchor x="312" y="710" name="top"/>
  <outline>
    <contour>
      <point x="232" y="527" type="curve" smooth="yes"/>
      <point x="232" y="562"/>
      <point x="274" y="577"/>
      <point x="324" y="577" type="curve" smooth="yes"/>
      <point x="354" y="577"/>
      <point x="385" y="572"/>
      <point x="413" y="563" type="curve"/>
      <point x="393" y="582" type="line"/>
      <point x="420" y="484" type="line"/>
      <point x="540" y="484" type="line"/>
      <point x="553" y="679" type="line"/>
      <point x="470" y="709"/>
      <point x="386" y="725"/>
      <point x="311" y="725" type="curve" smooth="yes"/>
      <point x="154" y="725"/>
      <point x="35" y="653"/>
      <point x="35" y="500" type="curve" smooth="yes"/>
      <point x="35" y="240"/>
      <point x="381" y="300"/>
      <point x="381" y="188" type="curve" smooth="yes"/>
      <point x="381" y="149"/>
      <point x="337" y="132"/>
      <point x="284" y="132" type="curve" smooth="yes"/>
      <point x="246" y="132"/>
      <point x="204" y="141"/>
      <point x="171" y="157" type="curve"/>
      <point x="189" y="126" type="line"/>
      <point x="163" y="241" type="line"/>
      <point x="46" y="241" type="line"/>
      <point x="41" y="26" type="line"/>
      <point x="118" y="-2"/>
      <point x="199" y="-16"/>
      <point x="275" y="-16" type="curve" smooth="yes"/>
      <point x="442" y="-16"/>
      <point x="581" y="55"/>
      <point x="581" y="215" type="curve" smooth="yes"/>
      <point x="581" y="469"/>
      <point x="232" y="427"/>
    </contour>
  </outline>
</glyph>
<glyph name="W" format="2">
  <advance width="1018"/>
  <unicode hex="0057"/>
  <anchor x="502" y="0" name="bottom"/>
  <anchor x="523" y="710" name="top"/>
  <outline>
    <contour>
      <point x="737" y="705" type="line"/>
      <point x="737" y="605" type="line"/>
      <point x="813" y="575" type="line"/>
      <point x="797" y="611" type="line"/>
      <point x="697" y="183" type="line"/>
      <point x="739" y="184" type="line"/>
      <point x="612" y="710" type="line"/>
      <point x="424" y="705" type="line"/>
      <point x="295" y="182" type="line"/>
      <point x="337" y="182" type="line"/>
      <point x="254" y="611" type="line"/>
      <point x="230" y="575" type="line"/>
      <point x="299" y="610" type="line"/>
      <point x="299" y="710" type="line"/>
      <point x="2" y="705" type="line"/>
      <point x="2" y="605" type="line"/>
      <point x="61" y="580" type="line"/>
      <point x="45" y="611" type="line"/>
      <point x="204" y="0" type="line"/>
      <point x="394" y="0" type="line"/>
      <point x="522" y="465" type="line"/>
      <point x="485" y="466" type="line"/>
      <point x="608" y="0" type="line"/>
      <point x="801" y="0" type="line"/>
      <point x="976" y="629" type="line"/>
      <point x="931" y="577" type="line"/>
      <point x="1017" y="610" type="line"/>
      <point x="1017" y="710" type="line"/>
    </contour>
  </outline>
</glyph>
<glyph name="l" format="2">
  <advance width="324"/>
  <unicode hex="006C"/>
  <anchor x="162" y="0" name="bottom"/>
  <anchor x="418" y="367" name="center"/>
  <anchor x="162" y="750" name="top"/>
  <anchor x="302" y="780" name="topright"/>
  <outline>
    <contour>
      <point x="262" y="112" type="line"/>
      <point x="262" y="785" type="line"/>
      <point x="7" y="775" type="line"/>
      <point x="7" y="675" type="line"/>
      <point x="72" y="650" type="line"/>
      <point x="62" y="661" type="line"/>
      <point x="62" y="112" type="line"/>
      <point x="74" y="127" type="line"/>
      <point x="7" y="100" type="line"/>
      <point x="7" y="0" type="line"/>
      <point x="317" y="0" type="line"/>
      <point x="317" y="100" type="line"/>
      <point x="250" y="127" type="line"/>
    </contour>
  </outline>
</glyph>
<glyph name="r" format="2">
  <advance width="498"/>
  <unicode hex="0072"/>
  <guideline x="176" y="100" angle="90"/>
  <anchor x="176" y="0" name="bottom"/>
  <anchor x="238" y="540" name="top"/>
  <outline>
    <contour>
      <point x="21" y="0" type="line"/>
      <point x="346" y="0" type="line"/>
      <point x="346" y="100" type="line"/>
      <point x="255" y="128" type="line"/>
      <point x="276" y="100" type="line"/>
      <point x="276" y="402" type="line"/>
      <point x="261" y="351" type="line"/>
      <point x="277" y="378"/>
      <point x="312" y="400"/>
      <point x="341" y="400" type="curve" smooth="yes"/>
      <point x="348" y="400"/>
      <point x="354" y="399"/>
      <point x="360" y="396" type="curve"/>
      <point x="343" y="433" type="line"/>
      <point x="370" y="253" type="line"/>
      <point x="264" y="321" type="line"/>
      <point x="564" y="321" type="line"/>
      <point x="471" y="251" type="line"/>
      <point x="484" y="545" type="line"/>
      <point x="458" y="552"/>
      <point x="436" y="555"/>
      <point x="415" y="555" type="curve" smooth="yes"/>
      <point x="349" y="555"/>
      <point x="293" y="521"/>
      <point x="231" y="459" type="curve"/>
      <point x="256" y="454" type="line"/>
      <point x="232" y="546" type="line"/>
      <point x="21" y="536" type="line"/>
      <point x="21" y="436" type="line"/>
      <point x="96" y="406" type="line"/>
      <point x="76" y="437" type="line"/>
      <point x="76" y="100" type="line"/>
      <point x="93" y="128" type="line"/>
      <point x="21" y="100" type="line"/>
    </contour>
  </outline>
</glyph>
<glyph name="yen" format="2">
  <advance width="671"/>
  <unicode hex="00A5"/>
  <outline>
    <contour>
      <point x="78" y="306" type="line"/>
      <point x="589" y="306" type="line"/>
      <point x="589" y="396" type="line"/>
      <point x="481" y="396" type="line"/>
      <point x="497" y="362" type="line"/>
      <point x="630" y="609" type="line"/>
      <point x="594" y="580" type="line"/>
      <point x="657" y="610" type="line"/>
      <point x="657" y="710" type="line"/>
      <point x="389" y="705" type="line"/>
      <point x="389" y="605" type="line"/>
      <point x="464" y="571" type="line"/>
      <point x="450" y="605" type="line"/>
      <point x="332" y="361" type="line"/>
      <point x="365" y="361" type="line"/>
      <point x="250" y="614" type="line"/>
      <point x="240" y="580" type="line"/>
      <point x="311" y="610" type="line"/>
      <point x="311" y="710" type="line"/>
      <point x="16" y="705" type="line"/>
      <point x="16" y="605" type="line"/>
      <point x="78" y="573" type="line"/>
      <point x="43" y="603" type="line"/>
      <point x="171" y="367" type="line"/>
      <point x="185" y="396" type="line"/>
      <point x="78" y="396" type="line"/>
    </contour>
    <contour>
      <point x="171" y="0" type="line"/>
      <point x="496" y="0" type="line"/>
      <point x="496" y="100" type="line"/>
      <point x="409" y="135" type="line"/>
      <point x="436" y="95" type="line"/>
      <point x="436" y="209" type="line"/>
      <point x="398" y="176" type="line"/>
      <point x="589" y="176" type="line"/>
      <point x="589" y="266" type="line"/>
      <point x="78" y="266" type="line"/>
      <point x="78" y="176" type="line"/>
      <point x="263" y="176" type="line"/>
      <point x="231" y="206" type="line"/>
      <point x="231" y="95" type="line"/>
      <point x="257" y="135" type="line"/>
      <point x="171" y="100" type="line"/>
    </contour>
  </outline>
</glyph>
<glyph name="hbar" format="2">
  <advance width="639"/>
  <unicode hex="0127"/>
  <guideline x="11" y="702" angle="90"/>
  <outline>
    <contour>
      <point x="1" y="661" type="line"/>
      <point x="1" y="556" type="line"/>
      <point x="420" y="556" type="line"/>
      <point x="420" y="661" type="line"/>
    </contour>
    <contour>
      <point x="11" y="0" type="line"/>
      <point x="311" y="0" type="line"/>
      <point x="311" y="100" type="line"/>
      <point x="250" y="126" type="line"/>
      <point x="266" y="99" type="line"/>
      <point x="266" y="379" type="line"/>
      <point x="254" y="351" type="line"/>
      <point x="284" y="377"/>
      <point x="315" y="390"/>
      <point x="339" y="390" type="curve" smooth="yes"/>
      <point x="367" y="390"/>
      <point x="386" y="372"/>
      <point x="386" y="335" type="curve" smooth="yes"/>
      <point x="386" y="99" type="line"/>
      <point x="407" y="127" type="line"/>
      <point x="341" y="100" type="line"/>
      <point x="341" y="0" type="line"/>
      <point x="631" y="0" type="line"/>
      <point x="631" y="100" type="line"/>
      <point x="570" y="129" type="line"/>
      <point x="586" y="103" type="line"/>
      <point x="586" y="373" type="line" smooth="yes"/>
      <point x="586" y="477"/>
      <point x="517" y="540"/>
      <point x="429" y="540" type="curve" smooth="yes"/>
      <point x="366" y="540"/>
      <point x="292" y="509"/>
      <point x="228" y="446" type="curve"/>
      <point x="266" y="438" type="line"/>
      <point x="266" y="785" type="line"/>
      <point x="11" y="775" type="line"/>
      <point x="11" y="685" type="line"/>
      <point x="88" y="660" type="line"/>
      <point x="66" y="685" type="line"/>
      <point x="66" y="103" type="line"/>
      <point x="88" y="130" type="line"/>
      <point x="11" y="100" type="line"/>
    </contour>
  </outline>
</glyph>
<glyph name="imacron" format="2">
  <advance width="338"/>
  <unicode hex="012B"/>
  <guideline x="21" y="594" angle="90"/>
  <guideline x="331" y="594" angle="90"/>
  <outline>
    <contour>
      <point x="323.90000000000003" y="786" type="line"/>
      <point x="21.5" y="786" type="line"/>
      <point x="21.5" y="651" type="line"/>
      <point x="323.90000000000003" y="651" type="line"/>
    </contour>
    <component base="idotless"/>
  </outline>
</glyph>
<glyph name="OE" format="2">
  <advance width="940"/>
  <unicode hex="0152"/>
  <anchor x="539" y="0" name="bottom"/>
  <anchor x="539" y="710" name="top"/>
  <outline>
    <contour>
      <point x="347" y="-7" type="curve" smooth="yes"/>
      <point x="400" y="-7"/>
      <point x="525" y="0"/>
      <point x="570" y="0" type="curve" smooth="yes"/>
      <point x="905" y="0" type="line"/>
      <point x="907" y="211" type="line"/>
      <point x="787" y="211" type="line"/>
      <point x="763" y="115" type="line"/>
      <point x="800" y="145" type="line"/>
      <point x="608" y="145" type="line"/>
      <point x="638" y="115" type="line"/>
      <point x="638" y="320" type="line"/>
      <point x="608" y="290" type="line"/>
      <point x="812" y="290" type="line"/>
      <point x="812" y="430" type="line"/>
      <point x="608" y="430" type="line"/>
      <point x="638" y="400" type="line"/>
      <point x="638" y="595" type="line"/>
      <point x="608" y="565" type="line"/>
      <point x="788" y="565" type="line"/>
      <point x="752" y="591" type="line"/>
      <point x="775" y="508" type="line"/>
      <point x="895" y="508" type="line"/>
      <point x="895" y="710" type="line"/>
      <point x="634" y="710" type="line" smooth="yes"/>
      <point x="593" y="710"/>
      <point x="441" y="716"/>
      <point x="387" y="716" type="curve" smooth="yes"/>
      <point x="151" y="716"/>
      <point x="23" y="601"/>
      <point x="23" y="346" type="curve" smooth="yes"/>
      <point x="23" y="112"/>
      <point x="131" y="-7"/>
    </contour>
    <contour>
      <point x="433" y="103" type="line"/>
      <point x="466" y="159" type="line"/>
      <point x="459" y="157"/>
      <point x="407" y="147"/>
      <point x="364" y="147" type="curve" smooth="yes"/>
      <point x="274" y="147"/>
      <point x="243" y="190"/>
      <point x="243" y="353" type="curve" smooth="yes"/>
      <point x="243" y="536"/>
      <point x="282" y="561"/>
      <point x="375" y="561" type="curve" smooth="yes"/>
      <point x="417" y="561"/>
      <point x="441" y="556"/>
      <point x="476" y="551" type="curve"/>
      <point x="433" y="606" type="line"/>
    </contour>
  </outline>
</glyph>
<glyph name="Tbar" format="2">
  <advance width="639"/>
  <unicode hex="0166"/>
  <outline>
    <contour>
      <point x="95.613" y="270.59999999999997" type="line"/>
      <point x="542.58158" y="270.59999999999997" type="line"/>
      <point x="542.58158" y="402.59999999999997" type="line"/>
      <point x="95.613" y="402.59999999999997" type="line"/>
    </contour>
    <component base="T"/>
  </outline>
</glyph>
<glyph name="dotaccentcomb" format="2">
  <unicode hex="0307"/>
  <anchor x="146" y="702" name="_center"/>
  <anchor x="146" y="540" name="_top"/>
  <anchor x="146" y="780" name="top"/>
  <outline>
    <contour>
      <point x="144" y="592" type="curve" smooth="yes"/>
      <point x="207" y="592"/>
      <point x="254" y="629"/>
      <point x="254" y="701" type="curve" smooth="yes"/>
      <point x="254" y="774"/>
      <point x="208" y="809"/>
      <point x="145" y="809" type="curve" smooth="yes"/>
      <point x="81" y="809"/>
      <point x="34" y="773"/>
      <point x="34" y="700" type="curve" smooth="yes"/>
      <point x="34" y="630"/>
      <point x="79" y="592"/>
    </contour>
  </outline>
</glyph>
<glyph name="Be-cy" format="2">
  <advance width="636"/>
  <unicode hex="0411"/>
  <guideline x="354" y="415" angle="0"/>
  <outline>
    <contour>
      <point x="24" y="0" type="line"/>
      <point x="319" y="0" type="line" smooth="yes"/>
      <point x="531" y="0"/>
      <point x="618" y="101"/>
      <point x="618" y="232" type="curve" smooth="yes"/>
      <point x="618" y="363"/>
      <point x="540" y="441"/>
      <point x="363" y="441" type="curve" smooth="yes"/>
      <point x="254" y="441" type="line"/>
      <point x="289" y="406" type="line"/>
      <point x="289" y="595" type="line"/>
      <point x="259" y="565" type="line"/>
      <point x="461" y="565" type="line"/>
      <point x="428" y="584" type="line"/>
      <point x="448" y="484" type="line"/>
      <point x="568" y="484" type="line"/>
      <point x="567" y="710" type="line"/>
      <point x="284" y="710" type="line"/>
      <point x="24" y="705" type="line"/>
      <point x="24" y="605" type="line"/>
      <point x="111" y="571" type="line"/>
      <point x="84" y="610" type="line"/>
      <point x="84" y="105" type="line"/>
      <point x="103" y="132" type="line"/>
      <point x="24" y="100" type="line"/>
    </contour>
    <contour>
      <point x="289" y="115" type="line"/>
      <point x="289" y="336" type="line"/>
      <point x="259" y="306" type="line"/>
      <point x="330" y="306" type="line" smooth="yes"/>
      <point x="381" y="306"/>
      <point x="407" y="284"/>
      <point x="407" y="226" type="curve" smooth="yes"/>
      <point x="407" y="169"/>
      <point x="377" y="145"/>
      <point x="316" y="145" type="curve" smooth="yes"/>
      <point x="249" y="145" type="line"/>
    </contour>
  </outline>
</glyph>
<glyph name="ii-cy" format="2">
  <advance width="687"/>
  <unicode hex="0438"/>
  <anchor x="667" y="0" name="bottomright"/>
  <anchor x="344" y="540" name="top"/>
  <outline>
    <contour>
      <point x="21" y="0" type="line"/>
      <point x="314" y="0" type="line"/>
      <point x="314" y="100" type="line"/>
      <point x="257" y="122" type="line"/>
      <point x="266" y="98" type="line"/>
      <point x="266" y="152" type="line"/>
      <point x="253" y="127" type="line"/>
      <point x="442" y="264" type="line"/>
      <point x="422" y="294" type="line"/>
      <point x="422" y="98" type="line"/>
      <point x="453" y="131" type="line"/>
      <point x="374" y="100" type="line"/>
      <point x="374" y="0" type="line"/>
      <point x="667" y="0" type="line"/>
      <point x="667" y="100" type="line"/>
      <point x="575" y="137" type="line"/>
      <point x="612" y="98" type="line"/>
      <point x="612" y="441" type="line"/>
      <point x="575" y="403" type="line"/>
      <point x="667" y="444" type="line"/>
      <point x="667" y="544" type="line"/>
      <point x="374" y="536" type="line"/>
      <point x="374" y="436" type="line"/>
      <point x="452" y="406" type="line"/>
      <point x="422" y="436" type="line"/>
      <point x="424" y="384" type="line"/>
      <point x="433" y="406" type="line"/>
      <point x="241" y="283" type="line"/>
      <point x="266" y="275" type="line"/>
      <point x="266" y="441" type="line"/>
      <point x="225" y="403" type="line"/>
      <point x="314" y="444" type="line"/>
      <point x="314" y="544" type="line"/>
      <point x="21" y="536" type="line"/>
      <point x="21" y="436" type="line"/>
      <point x="127" y="393" type="line"/>
      <point x="76" y="436" type="line"/>
      <point x="76" y="98" type="line"/>
      <point x="113" y="137" type="line"/>
      <point x="21" y="100" type="line"/>
    </contour>
  </outline>
</glyph>
<glyph name="semisoftsign-cy" format="2">
  <advance width="559"/>
  <unicode hex="048D"/>
  <outline>
    <contour>
      <point x="27" y="0" type="line"/>
      <point x="295" y="0" type="line" smooth="yes"/>
      <point x="477" y="0"/>
      <point x="556" y="67"/>
      <point x="556" y="193" type="curve" smooth="yes"/>
      <point x="556" y="320"/>
      <point x="476" y="376"/>
      <point x="340" y="376" type="curve" smooth="yes"/>
      <point x="252" y="376" type="line"/>
      <point x="282" y="352" type="line"/>
      <point x="282" y="785" type="line"/>
      <point x="27" y="775" type="line"/>
      <point x="27" y="675" type="line"/>
      <point x="92" y="650" type="line"/>
      <point x="82" y="661" type="line"/>
      <point x="82" y="112" type="line"/>
      <point x="94" y="127" type="line"/>
      <point x="27" y="100" type="line"/>
    </contour>
    <contour>
      <point x="282" y="104" type="line"/>
      <point x="282" y="270" type="line"/>
      <point x="252" y="246" type="line"/>
      <point x="294" y="246" type="line" smooth="yes"/>
      <point x="331" y="246"/>
      <point x="348" y="232"/>
      <point x="348" y="190" type="curve" smooth="yes"/>
      <point x="348" y="145"/>
      <point x="329" y="130"/>
      <point x="289" y="130" type="curve" smooth="yes"/>
      <point x="252" y="130" type="line"/>
    </contour>
    <contour>
      <point x="17" y="430" type="line"/>
      <point x="417" y="430" type="line"/>
      <point x="417" y="540" type="line"/>
      <point x="17" y="540" type="line"/>
    </contour>
  </outline>
</glyph>
<glyph name="Esdescender-cy" format="2">
  <advance width="618"/>
  <unicode hex="04AA"/>
  <anchor x="342" y="710" name="top"/>
  <outline>
    <contour>
      <point x="277" y="-205" type="line"/>
      <point x="397" y="-205" type="line"/>
      <point x="426" y="20" type="line"/>
      <point x="248" y="20" type="line"/>
    </contour>
    <contour>
      <point x="332" y="-15" type="curve" smooth="yes"/>
      <point x="420" y="-15"/>
      <point x="514" y="18"/>
      <point x="602" y="86" type="curve"/>
      <point x="529" y="202" type="line"/>
      <point x="476" y="166"/>
      <point x="426" y="148"/>
      <point x="383" y="148" type="curve" smooth="yes"/>
      <point x="298" y="148"/>
      <point x="242" y="216"/>
      <point x="242" y="375" type="curve" smooth="yes"/>
      <point x="242" y="499"/>
      <point x="276" y="570"/>
      <point x="366" y="570" type="curve" smooth="yes"/>
      <point x="394" y="570"/>
      <point x="424" y="563"/>
      <point x="463" y="549" type="curve"/>
      <point x="429" y="579" type="line"/>
      <point x="460" y="468" type="line"/>
      <point x="580" y="468" type="line"/>
      <point x="591" y="671" type="line"/>
      <point x="503" y="707"/>
      <point x="431" y="725"/>
      <point x="357" y="725" type="curve" smooth="yes"/>
      <point x="151" y="725"/>
      <point x="22" y="585"/>
      <point x="22" y="351" type="curve" smooth="yes"/>
      <point x="22" y="107"/>
      <point x="163" y="-15"/>
    </contour>
  </outline>
</glyph>
<glyph name="Schwa-cy" format="2">
  <advance width="661"/>
  <unicode hex="04D8"/>
  <guideline x="671" y="400" angle="90"/>
  <guideline x="22" y="473" angle="90"/>
  <anchor x="329" y="710" name="top"/>
  <outline>
    <contour>
      <point x="21" y="91"/>
      <point x="139" y="-15"/>
      <point x="307" y="-15" type="curve" smooth="yes"/>
      <point x="503" y="-15"/>
      <point x="640" y="130"/>
      <point x="640" y="364" type="curve" smooth="yes"/>
      <point x="640" y="600"/>
      <point x="501" y="724"/>
      <point x="324" y="724" type="curve" smooth="yes"/>
      <point x="233" y="724"/>
      <point x="133" y="691"/>
      <point x="36" y="622" type="curve"/>
      <point x="113" y="508" type="line"/>
      <point x="177" y="545"/>
      <point x="233" y="563"/>
      <point x="281" y="563" type="curve" smooth="yes"/>
      <point x="376" y="563"/>
      <point x="423" y="491"/>
      <point x="423" y="331" type="curve" smooth="yes"/>
      <point x="423" y="179"/>
      <point x="381" y="140"/>
      <point x="322" y="140" type="curve" smooth="yes"/>
      <point x="263" y="140"/>
      <point x="242" y="179"/>
      <point x="242" y="293" type="curve"/>
      <point x="223" y="271" type="line"/>
      <point x="515" y="271" type="line"/>
      <point x="515" y="406" type="line"/>
      <point x="30" y="406" type="line"/>
      <point x="24" y="366"/>
      <point x="21" y="329"/>
      <point x="21" y="295" type="curve" smooth="yes"/>
    </contour>
  </outline>
</glyph>
<glyph name="idieresisacute" format="2">
  <advance width="338"/>
  <unicode hex="1E2F"/>
  <anchor x="176" y="0" name="bottom"/>
  <anchor x="331" y="0" name="ogonek"/>
  <outline>
    <contour>
      <point x="21" y="0" type="line"/>
      <point x="331" y="0" type="line"/>
      <point x="331" y="100" type="line"/>
      <point x="264" y="127" type="line"/>
      <point x="276" y="112" type="line"/>
      <point x="276" y="544" type="line"/>
      <point x="21" y="536" type="line"/>
      <point x="21" y="436" type="line"/>
      <point x="86" y="411" type="line"/>
      <point x="76" y="421" type="line"/>
      <point x="76" y="112" type="line"/>
      <point x="88" y="127" type="line"/>
      <point x="21" y="100" type="line"/>
    </contour>
    <contour>
      <point x="43" y="577" type="curve" smooth="yes"/>
      <point x="90" y="577"/>
      <point x="131" y="613"/>
      <point x="131" y="675" type="curve" smooth="yes"/>
      <point x="131" y="733"/>
      <point x="95" y="771"/>
      <point x="46" y="771" type="curve" smooth="yes"/>
      <point x="-1" y="771"/>
      <point x="-40" y="737"/>
      <point x="-40" y="674" type="curve" smooth="yes"/>
      <point x="-40" y="616"/>
      <point x="-7" y="577"/>
    </contour>
    <contour>
      <point x="275" y="577" type="curve" smooth="yes"/>
      <point x="323" y="577"/>
      <point x="363" y="613"/>
      <point x="363" y="675" type="curve" smooth="yes"/>
      <point x="363" y="734"/>
      <point x="327" y="771"/>
      <point x="278" y="771" type="curve" smooth="yes"/>
      <point x="232" y="771"/>
      <point x="192" y="737"/>
      <point x="192" y="674" type="curve" smooth="yes"/>
      <point x="192" y="616"/>
      <point x="225" y="577"/>
    </contour>
    <contour>
      <point x="157" y="715" type="line"/>
      <point x="341" y="863" type="line"/>
      <point x="242" y="964" type="line"/>
      <point x="80" y="792" type="line"/>
    </contour>
  </outline>
</glyph>
<glyph name="Tlinebelow" format="2">
  <advance width="639"/>
  <unicode hex="1E6E"/>
  <outline>
    <contour>
      <point x="488" y="-79" type="line"/>
      <point x="152" y="-79" type="line"/>
      <point x="152" y="-214" type="line"/>
      <point x="488" y="-214" type="line"/>
    </contour>
    <component base="T"/>
  </outline>
</glyph>
<glyph name="quotesinglbase" format="2">
  <advance width="247"/>
  <unicode hex="201A"/>
  <guideline x="20" y="207" angle="0"/>
  <guideline x="20" y="-224" angle="0"/>
  <outline>
    <contour>
      <point x="46" y="78" type="curve" smooth="yes"/>
      <point x="46" y="24"/>
      <point x="81" y="1"/>
      <point x="81" y="-30" type="curve" smooth="yes"/>
      <point x="81" y="-48"/>
      <point x="68" y="-81"/>
      <point x="22" y="-159" type="curve"/>
      <point x="86" y="-201" type="line"/>
      <point x="200" y="-88"/>
      <point x="239" y="1"/>
      <point x="239" y="67" type="curve" smooth="yes"/>
      <point x="239" y="139"/>
      <point x="189" y="174"/>
      <point x="140" y="174" type="curve" smooth="yes"/>
      <point x="92" y="174"/>
      <point x="46" y="142"/>
    </contour>
  </outline>
</glyph>
<glyph name="quotereversed" format="2">
  <advance width="247"/>
  <unicode hex="201B"/>
  <outline>
    <contour>
      <point x="201" y="699" type="curve" smooth="yes"/>
      <point x="201" y="645"/>
      <point x="166" y="622"/>
      <point x="166" y="591" type="curve" smooth="yes"/>
      <point x="166" y="573"/>
      <point x="179" y="540"/>
      <point x="225" y="462" type="curve"/>
      <point x="161" y="420" type="line"/>
      <point x="47" y="533"/>
      <point x="8" y="622"/>
      <point x="8" y="688" type="curve" smooth="yes"/>
      <point x="8" y="760"/>
      <point x="58" y="795"/>
      <point x="107" y="795" type="curve" smooth="yes"/>
      <point x="155" y="795"/>
      <point x="201" y="763"/>
    </contour>
  </outline>
</glyph>
<glyph name="bullet" format="2">
  <advance width="470"/>
  <unicode hex="2022"/>
  <outline>
    <contour>
      <point x="28" y="300" type="curve" smooth="yes"/>
      <point x="28" y="177"/>
      <point x="107" y="98"/>
      <point x="235" y="98" type="curve" smooth="yes"/>
      <point x="347" y="98"/>
      <point x="442" y="177"/>
      <point x="442" y="300" type="curve" smooth="yes"/>
      <point x="442" y="420"/>
      <point x="362" y="503"/>
      <point x="235" y="503" type="curve" smooth="yes"/>
      <point x="124" y="503"/>
      <point x="28" y="421"/>
    </contour>
  </outline>
</glyph>
<glyph name="rightBlackTriangle" format="2">
  <advance width="610"/>
  <unicode hex="25B6"/>
  <outline>
    <contour>
      <point x="560" y="322" type="line"/>
      <point x="116" y="579" type="line"/>
      <point x="116" y="66" type="line"/>
    </contour>
  </outline>
</glyph>
<glyph name="rightWhiteTriangle" format="2">
  <advance width="610"/>
  <unicode hex="25B7"/>
  <outline>
    <contour>
      <point x="560" y="324" type="line"/>
      <point x="116" y="67" type="line"/>
      <point x="116" y="580" type="line"/>
    </contour>
    <contour>
      <point x="388" y="292" type="line"/>
      <point x="181" y="411" type="line"/>
      <point x="235" y="441" type="line"/>
      <point x="235" y="204" type="line"/>
      <point x="182" y="234" type="line"/>
      <point x="388" y="353" type="line"/>
    </contour>
  </outline>
</glyph>
<glyph name="downBlackTriangle" format="2">
  <advance width="631"/>
  <unicode hex="25BC"/>
  <outline>
    <contour>
      <point x="315" y="61" type="line"/>
      <point x="572" y="505" type="line"/>
      <point x="59" y="505" type="line"/>
    </contour>
  </outline>
</glyph>
<glyph name="Q.alt" format="2">
  <advance width="722"/>
  <anchor x="361" y="0" name="bottom"/>
  <anchor x="361" y="710" name="top"/>
  <outline>
    <contour>
      <point x="619" y="-213" type="curve" smooth="yes"/>
      <point x="687" y="-213"/>
      <point x="759" y="-175"/>
      <point x="871" y="-96" type="curve"/>
      <point x="713" y="-245" type="line"/>
      <point x="664" y="-18" type="line"/>
      <point x="799" y="-2" type="line"/>
      <point x="714" y="-36"/>
      <point x="667" y="-53"/>
      <point x="627" y="-53" type="curve" smooth="yes"/>
      <point x="578" y="-53"/>
      <point x="543" y="-28"/>
      <point x="471" y="26" type="curve"/>
      <point x="465" y="3" type="line"/>
      <point x="609" y="39"/>
      <point x="700" y="182"/>
      <point x="700" y="371" type="curve" smooth="yes"/>
      <point x="700" y="594"/>
      <point x="585" y="725"/>
      <point x="369" y="725" type="curve" smooth="yes"/>
      <point x="153" y="725"/>
      <point x="23" y="594"/>
      <point x="23" y="345" type="curve" smooth="yes"/>
      <point x="23" y="114"/>
      <point x="135" y="-13"/>
      <point x="341" y="-15" type="curve"/>
      <point x="297" y="0" type="line"/>
      <point x="456" y="-143"/>
      <point x="527" y="-213"/>
    </contour>
    <contour>
      <point x="359" y="140" type="curve" smooth="yes"/>
      <point x="273" y="140"/>
      <point x="243" y="194"/>
      <point x="243" y="351" type="curve" smooth="yes"/>
      <point x="243" y="514"/>
      <point x="273" y="570"/>
      <point x="360" y="570" type="curve" smooth="yes"/>
      <point x="449" y="570"/>
      <point x="480" y="517"/>
      <point x="480" y="363" type="curve" smooth="yes"/>
      <point x="480" y="197"/>
      <point x="449" y="140"/>
    </contour>
  </outline>
</glyph>
<glyph name="acute.case.loclPLK" format="2">
  <advance width="390"/>
  <guideline y="756"/>
  <guideline y="998"/>
  <anchor x="188" y="710" name="_top"/>
  <anchor x="188" y="980" name="top"/>
  <outline>
    <contour>
      <point x="205" y="749" type="line"/>
      <point x="372" y="929" type="line"/>
      <point x="246" y="1018" type="line"/>
      <point x="114" y="812" type="line"/>
    </contour>
  </outline>
</glyph>
<glyph name="backslash.case" format="2">
  <advance width="348"/>
  <outline>
    <contour>
      <point x="-29" y="813" type="line"/>
      <point x="234" y="-90" type="line"/>
      <point x="377" y="-90" type="line"/>
      <point x="116" y="813" type="line"/>
    </contour>
  </outline>
</glyph>
<glyph name="braceleft.case" format="2">
  <advance width="382"/>
  <guideline x="223" y="-118" angle="0"/>
  <outline>
    <contour>
      <point x="294" y="-118" type="curve" smooth="yes"/>
      <point x="374" y="-118" type="line"/>
      <point x="374" y="2" type="line"/>
      <point x="284" y="2"/>
      <point x="265" y="27"/>
      <point x="265" y="107" type="curve" smooth="yes"/>
      <point x="265" y="201" type="line" smooth="yes"/>
      <point x="265" y="311"/>
      <point x="192" y="361"/>
      <point x="72" y="361" type="curve"/>
      <point x="72" y="343" type="line"/>
      <point x="192" y="343"/>
      <point x="265" y="393"/>
      <point x="265" y="503" type="curve" smooth="yes"/>
      <point x="265" y="597" type="line" smooth="yes"/>
      <point x="265" y="677"/>
      <point x="284" y="702"/>
      <point x="374" y="702" type="curve"/>
      <point x="374" y="822" type="line"/>
      <point x="294" y="822" type="line" smooth="yes"/>
      <point x="154" y="822"/>
      <point x="90" y="747"/>
      <point x="90" y="607" type="curve" smooth="yes"/>
      <point x="90" y="522" type="line" smooth="yes"/>
      <point x="90" y="457"/>
      <point x="75" y="417"/>
      <point x="0" y="417" type="curve"/>
      <point x="0" y="287" type="line"/>
      <point x="70" y="287"/>
      <point x="90" y="247"/>
      <point x="90" y="182" type="curve" smooth="yes"/>
      <point x="90" y="97" type="line" smooth="yes"/>
      <point x="90" y="-43"/>
      <point x="154" y="-118"/>
    </contour>
  </outline>
</glyph>
<glyph name="brevecomb_gravecomb" format="2">
  <anchor x="262" y="540" name="_top"/>
  <anchor x="263" y="900" name="top"/>
  <outline>
    <contour>
      <point x="265" y="741" type="line"/>
      <point x="81" y="889" type="line"/>
      <point x="180" y="990" type="line"/>
      <point x="342" y="818" type="line"/>
    </contour>
    <component base="brevecomb.case" xOffset="55" yOffset="-184"/>
  </outline>
</glyph>
<glyph name="descender-cy.case" format="2">
  <advance width="274"/>
  <guideline x="918" y="145" angle="0"/>
  <guideline x="938" y="100" angle="0"/>
  <anchor x="192" y="0" name="_bottomright"/>
  <outline>
    <contour>
      <point x="11" y="153" type="line"/>
      <point x="11" y="0" type="line"/>
      <point x="79" y="0" type="line"/>
      <point x="54" y="18" type="line"/>
      <point x="113" y="-200" type="line"/>
      <point x="233" y="-200" type="line"/>
      <point x="231" y="100" type="line"/>
    </contour>
  </outline>
</glyph>
<glyph name="dieresiscaroncomb" format="2">
  <advance width="536"/>
  <anchor x="268" y="540" name="_top"/>
  <outline>
    <contour>
      <point x="413" y="578" type="curve" smooth="yes"/>
      <point x="465" y="578"/>
      <point x="506" y="614"/>
      <point x="506" y="675" type="curve" smooth="yes"/>
      <point x="506" y="735"/>
      <point x="471" y="772"/>
      <point x="413" y="772" type="curve" smooth="yes"/>
      <point x="361" y="772"/>
      <point x="320" y="735"/>
      <point x="321" y="675" type="curve" smooth="yes"/>
      <point x="322" y="614"/>
      <point x="354" y="578"/>
    </contour>
    <contour>
      <point x="121" y="578" type="curve" smooth="yes"/>
      <point x="173" y="578"/>
      <point x="215" y="614"/>
      <point x="215" y="675" type="curve" smooth="yes"/>
      <point x="215" y="735"/>
      <point x="180" y="772"/>
      <point x="121" y="772" type="curve" smooth="yes"/>
      <point x="69" y="772"/>
      <point x="29" y="735"/>
      <point x="30" y="675" type="curve" smooth="yes"/>
      <point x="31" y="614"/>
      <point x="63" y="578"/>
    </contour>
    <contour>
      <point x="423" y="971" type="line"/>
      <point x="205" y="841" type="line"/>
      <point x="346" y="839" type="line"/>
      <point x="121" y="971" type="line"/>
      <point x="56" y="895" type="line"/>
      <point x="222" y="742" type="line"/>
      <point x="334" y="753" type="line"/>
      <point x="486" y="895" type="line"/>
    </contour>
  </outline>
</glyph>
<glyph name="eth.sc" format="2">
  <advance width="637"/>
  <guideline x="28" y="433" angle="90"/>
  <outline>
    <contour>
      <point x="26.0" y="245" type="line"/>
      <point x="355.08" y="245" type="line"/>
      <point x="355.08" y="355" type="line"/>
      <point x="26.0" y="355" type="line"/>
    </contour>
    <component base="d.sc"/>
  </outline>
</glyph>
<glyph name="f.alt" format="2">
  <advance width="394"/>
  <anchor x="186" y="0" name="bottom"/>
  <anchor x="311" y="780" name="top"/>
  <outline>
    <contour>
      <point x="24" y="0" type="line"/>
      <point x="344" y="0" type="line"/>
      <point x="344" y="100" type="line"/>
      <point x="263" y="128" type="line"/>
      <point x="279" y="110" type="line"/>
      <point x="279" y="424" type="line"/>
      <point x="262" y="405" type="line"/>
      <point x="388" y="405" type="line"/>
      <point x="391" y="535" type="line"/>
      <point x="255" y="535" type="line"/>
      <point x="279" y="513" type="line"/>
      <point x="279" y="574" type="line" smooth="yes"/>
      <point x="279" y="632"/>
      <point x="299" y="654"/>
      <point x="342" y="654" type="curve" smooth="yes"/>
      <point x="357" y="654"/>
      <point x="373" y="652"/>
      <point x="390" y="648" type="curve"/>
      <point x="415" y="783" type="line"/>
      <point x="381" y="791"/>
      <point x="344" y="795"/>
      <point x="312" y="795" type="curve" smooth="yes"/>
      <point x="177" y="795"/>
      <point x="79" y="719"/>
      <point x="79" y="558" type="curve" smooth="yes"/>
      <point x="79" y="513" type="line"/>
      <point x="100" y="540" type="line"/>
      <point x="19" y="510" type="line"/>
      <point x="19" y="405" type="line"/>
      <point x="95" y="405" type="line"/>
      <point x="79" y="424" type="line"/>
      <point x="79" y="109" type="line"/>
      <point x="95" y="128" type="line"/>
      <point x="24" y="100" type="line"/>
    </contour>
  </outline>
</glyph>
<glyph name="f_f_j" format="2">
  <advance width="1042"/>
  <guideline x="533" y="405" angle="0"/>
  <outline>
    <contour>
      <point x="24" y="0" type="line"/>
      <point x="334" y="0" type="line"/>
      <point x="334" y="100" type="line"/>
      <point x="263" y="128" type="line"/>
      <point x="279" y="110" type="line"/>
      <point x="279" y="424" type="line"/>
      <point x="262" y="405" type="line"/>
      <point x="535" y="405" type="line"/>
      <point x="535" y="535" type="line"/>
      <point x="255" y="535" type="line"/>
      <point x="279" y="513" type="line"/>
      <point x="279" y="554" type="line" smooth="yes"/>
      <point x="279" y="622"/>
      <point x="322" y="643"/>
      <point x="388" y="643" type="curve" smooth="yes"/>
      <point x="431" y="643"/>
      <point x="485" y="634"/>
      <point x="543" y="622" type="curve"/>
      <point x="649" y="729" type="line"/>
      <point x="552" y="761"/>
      <point x="453" y="781"/>
      <point x="364" y="781" type="curve" smooth="yes"/>
      <point x="203" y="781"/>
      <point x="79" y="716"/>
      <point x="79" y="546" type="curve" smooth="yes"/>
      <point x="79" y="513" type="line"/>
      <point x="100" y="540" type="line"/>
      <point x="19" y="510" type="line"/>
      <point x="19" y="405" type="line"/>
      <point x="95" y="405" type="line"/>
      <point x="79" y="424" type="line"/>
      <point x="79" y="109" type="line"/>
      <point x="95" y="128" type="line"/>
      <point x="24" y="100" type="line"/>
    </contour>
    <contour>
      <point x="815" y="405" type="line"/>
      <point x="794" y="429" type="line"/>
      <point x="794" y="-23" type="line" smooth="yes"/>
      <point x="794" y="-80"/>
      <point x="769" y="-100"/>
      <point x="711" y="-100" type="curve" smooth="yes"/>
      <point x="699" y="-100"/>
      <point x="684" y="-99"/>
      <point x="668" y="-97" type="curve"/>
      <point x="653" y="-236" type="line"/>
      <point x="683" y="-242"/>
      <point x="708" y="-245"/>
      <point x="737" y="-245" type="curve" smooth="yes"/>
      <point x="874" y="-245"/>
      <point x="994" y="-179"/>
      <point x="994" y="36" type="curve" smooth="yes"/>
      <point x="994" y="544" type="line"/>
      <point x="613" y="535" type="line"/>
      <point x="637" y="513" type="line"/>
      <point x="637" y="574" type="line" smooth="yes"/>
      <point x="637" y="633"/>
      <point x="667" y="650"/>
      <point x="713" y="650" type="curve" smooth="yes"/>
      <point x="725" y="650"/>
      <point x="739" y="649"/>
      <point x="753" y="647" type="curve"/>
      <point x="766" y="790" type="line"/>
      <point x="749" y="793"/>
      <point x="701" y="795"/>
      <point x="679" y="795" type="curve" smooth="yes"/>
      <point x="532" y="795"/>
      <point x="437" y="719"/>
      <point x="437" y="558" type="curve" smooth="yes"/>
      <point x="437" y="109" type="line"/>
      <point x="453" y="128" type="line"/>
      <point x="382" y="100" type="line"/>
      <point x="382" y="0" type="line"/>
      <point x="702" y="0" type="line"/>
      <point x="702" y="100" type="line"/>
      <point x="621" y="128" type="line"/>
      <point x="637" y="110" type="line"/>
      <point x="637" y="424" type="line"/>
      <point x="620" y="405" type="line"/>
    </contour>
    <contour>
      <point x="885" y="592" type="curve" smooth="yes"/>
      <point x="948" y="592"/>
      <point x="995" y="629"/>
      <point x="995" y="701" type="curve" smooth="yes"/>
      <point x="995" y="774"/>
      <point x="949" y="809"/>
      <point x="886" y="809" type="curve" smooth="yes"/>
      <point x="822" y="809"/>
      <point x="775" y="773"/>
      <point x="775" y="700" type="curve" smooth="yes"/>
      <point x="775" y="630"/>
      <point x="820" y="592"/>
    </contour>
  </outline>
</glyph>
<glyph name="f_k" format="2">
  <advance width="1014"/>
  <anchor x="179" y="0" name="bottom"/>
  <anchor x="710" y="0" name="caret_1"/>
  <anchor x="252" y="780" name="top"/>
  <outline>
    <contour>
      <point x="498" y="644" type="curve"/>
      <point x="454" y="669" type="line"/>
      <point x="454" y="95" type="line"/>
      <point x="476" y="130" type="line"/>
      <point x="399" y="100" type="line"/>
      <point x="399" y="0" type="line"/>
      <point x="704" y="0" type="line"/>
      <point x="704" y="100" type="line"/>
      <point x="636" y="131" type="line"/>
      <point x="654" y="95" type="line"/>
      <point x="654" y="238" type="line"/>
      <point x="623" y="227" type="line"/>
      <point x="725" y="227" type="line"/>
      <point x="699" y="238" type="line"/>
      <point x="805" y="0" type="line"/>
      <point x="1006" y="0" type="line"/>
      <point x="1006" y="100" type="line"/>
      <point x="935" y="123" type="line"/>
      <point x="961" y="99" type="line"/>
      <point x="846" y="332" type="line"/>
      <point x="842" y="284" type="line"/>
      <point x="964" y="453" type="line"/>
      <point x="913" y="424" type="line"/>
      <point x="990" y="445" type="line"/>
      <point x="990" y="545" type="line"/>
      <point x="723" y="535" type="line"/>
      <point x="723" y="435" type="line"/>
      <point x="781" y="420" type="line"/>
      <point x="767" y="439" type="line"/>
      <point x="694" y="336" type="line"/>
      <point x="741" y="357" type="line"/>
      <point x="623" y="357" type="line"/>
      <point x="654" y="330" type="line"/>
      <point x="654" y="785" type="line"/>
      <point x="371" y="772" type="line"/>
      <point x="552" y="763" type="line"/>
      <point x="483" y="784"/>
      <point x="416" y="795"/>
      <point x="355" y="795" type="curve" smooth="yes"/>
      <point x="196" y="795"/>
      <point x="79" y="720"/>
      <point x="79" y="557" type="curve" smooth="yes"/>
      <point x="79" y="513" type="line"/>
      <point x="95" y="540" type="line"/>
      <point x="19" y="510" type="line"/>
      <point x="19" y="405" type="line"/>
      <point x="98" y="405" type="line"/>
      <point x="79" y="428" type="line"/>
      <point x="79" y="100" type="line"/>
      <point x="98" y="129" type="line"/>
      <point x="24" y="100" type="line"/>
      <point x="24" y="0" type="line"/>
      <point x="344" y="0" type="line"/>
      <point x="344" y="100" type="line"/>
      <point x="260" y="129" type="line"/>
      <point x="279" y="100" type="line"/>
      <point x="279" y="428" type="line"/>
      <point x="259" y="405" type="line"/>
      <point x="389" y="405" type="line"/>
      <point x="392" y="535" type="line"/>
      <point x="259" y="535" type="line"/>
      <point x="279" y="513" type="line"/>
      <point x="279" y="559" type="line" smooth="yes"/>
      <point x="279" y="632"/>
      <point x="312" y="655"/>
      <point x="380" y="655" type="curve" smooth="yes"/>
      <point x="411" y="655"/>
      <point x="451" y="651"/>
    </contour>
  </outline>
</glyph>
<glyph name="one.tf" format="2">
  <advance width="630"/>
  <outline>
    <contour>
      <point x="445" y="85" type="line"/>
      <point x="445" y="714" type="line"/>
      <point x="273" y="714" type="line"/>
      <point x="43" y="580" type="line"/>
      <point x="95" y="458" type="line"/>
      <point x="295" y="542" type="line"/>
      <point x="240" y="542" type="line"/>
      <point x="240" y="85" type="line"/>
      <point x="279" y="133" type="line"/>
      <point x="96" y="100" type="line"/>
      <point x="96" y="0" type="line"/>
      <point x="565" y="0" type="line"/>
      <point x="565" y="100" type="line"/>
      <point x="407" y="136" type="line"/>
    </contour>
  </outline>
</glyph>
<glyph name="periodcentered.sc" format="2">
  <advance width="243"/>
  <outline>
    <contour>
      <point x="20.0" y="336.55" type="curve" smooth="yes"/>
      <point x="20.0" y="276.7"/>
      <point x="58.949999999999996" y="237.75"/>
      <point x="121.64999999999999" y="237.75" type="curve" smooth="yes"/>
      <point x="175.79999999999998" y="237.75"/>
      <point x="223.29999999999998" y="276.7"/>
      <point x="223.29999999999998" y="336.55" type="curve" smooth="yes"/>
      <point x="223.29999999999998" y="395.45"/>
      <point x="184.35" y="435.35"/>
      <point x="121.64999999999999" y="435.35" type="curve" smooth="yes"/>
      <point x="67.5" y="435.35"/>
      <point x="20.0" y="395.45"/>
    </contour>
  </outline>
</glyph>
<glyph name="question.sc" format="2">
  <advance width="451"/>
  <outline>
    <contour>
      <point x="121" y="236" type="curve"/>
      <point x="277" y="243" type="line"/>
      <point x="277" y="246"/>
      <point x="277" y="249"/>
      <point x="277" y="252" type="curve" smooth="yes"/>
      <point x="277" y="328"/>
      <point x="441" y="333"/>
      <point x="441" y="465" type="curve" smooth="yes"/>
      <point x="441" y="568"/>
      <point x="341" y="605"/>
      <point x="227" y="605" type="curve" smooth="yes"/>
      <point x="154" y="605"/>
      <point x="76" y="590"/>
      <point x="10" y="565" type="curve"/>
      <point x="44" y="431" type="line"/>
      <point x="83" y="448"/>
      <point x="136" y="463"/>
      <point x="175" y="463" type="curve" smooth="yes"/>
      <point x="205" y="463"/>
      <point x="226" y="455"/>
      <point x="226" y="434" type="curve" smooth="yes"/>
      <point x="226" y="387"/>
      <point x="115" y="374"/>
      <point x="115" y="277" type="curve" smooth="yes"/>
      <point x="115" y="264"/>
      <point x="117" y="251"/>
    </contour>
    <contour>
      <point x="101" y="89" type="curve" smooth="yes"/>
      <point x="101" y="26"/>
      <point x="142" y="-15"/>
      <point x="208" y="-15" type="curve" smooth="yes"/>
      <point x="265" y="-15"/>
      <point x="315" y="26"/>
      <point x="315" y="89" type="curve" smooth="yes"/>
      <point x="315" y="151"/>
      <point x="274" y="193"/>
      <point x="208" y="193" type="curve" smooth="yes"/>
      <point x="151" y="193"/>
      <point x="101" y="151"/>
    </contour>
  </outline>
</glyph>
<glyph name="quoteleft.sc" format="2">
  <advance width="247"/>
  <guideline x="246" y="648" angle="0"/>
  <guideline x="246" y="274" angle="0"/>
  <outline>
    <contour>
      <point x="201" y="371" type="curve" smooth="yes"/>
      <point x="201" y="425"/>
      <point x="166" y="448"/>
      <point x="166" y="479" type="curve" smooth="yes"/>
      <point x="166" y="497"/>
      <point x="179" y="530"/>
      <point x="225" y="608" type="curve"/>
      <point x="161" y="650" type="line"/>
      <point x="47" y="537"/>
      <point x="8" y="448"/>
      <point x="8" y="382" type="curve" smooth="yes"/>
      <point x="8" y="310"/>
      <point x="58" y="275"/>
      <point x="107" y="275" type="curve" smooth="yes"/>
      <point x="155" y="275"/>
      <point x="201" y="307"/>
    </contour>
  </outline>
</glyph>
<glyph name="three.dnom" format="2">
  <advance width="378"/>
  <outline>
    <contour>
      <point x="53" y="0"/>
      <point x="111" y="-12"/>
      <point x="166" y="-12" type="curve" smooth="yes"/>
      <point x="275" y="-12"/>
      <point x="369" y="32"/>
      <point x="369" y="127" type="curve" smooth="yes"/>
      <point x="369" y="188"/>
      <point x="327" y="222"/>
      <point x="237" y="229" type="curve"/>
      <point x="246" y="222" type="line"/>
      <point x="309" y="227"/>
      <point x="364" y="260"/>
      <point x="364" y="331" type="curve" smooth="yes"/>
      <point x="364" y="415"/>
      <point x="284" y="447"/>
      <point x="186" y="447" type="curve" smooth="yes"/>
      <point x="130" y="447"/>
      <point x="69" y="437"/>
      <point x="13" y="419" type="curve"/>
      <point x="19" y="298" type="line"/>
      <point x="119" y="298" type="line"/>
      <point x="127" y="351" type="line"/>
      <point x="103" y="330" type="line"/>
      <point x="119" y="335"/>
      <point x="137" y="338"/>
      <point x="152" y="338" type="curve" smooth="yes"/>
      <point x="178" y="338"/>
      <point x="198" y="329"/>
      <point x="198" y="302" type="curve" smooth="yes"/>
      <point x="198" y="278"/>
      <point x="182" y="266"/>
      <point x="145" y="266" type="curve" smooth="yes"/>
      <point x="91" y="266" type="line"/>
      <point x="91" y="165" type="line"/>
      <point x="157" y="165" type="line" smooth="yes"/>
      <point x="187" y="165"/>
      <point x="202" y="158"/>
      <point x="202" y="137" type="curve" smooth="yes"/>
      <point x="202" y="113"/>
      <point x="180" y="104"/>
      <point x="149" y="104" type="curve" smooth="yes"/>
      <point x="120" y="104"/>
      <point x="82" y="112"/>
      <point x="47" y="123" type="curve"/>
      <point x="1" y="21" type="line"/>
    </contour>
  </outline>
</glyph>
<glyph name="tlinebelow.sc" format="2">
  <advance width="576"/>
  <outline>
    <contour>
      <point x="456" y="-79" type="line"/>
      <point x="120" y="-79" type="line"/>
      <point x="120" y="-214" type="line"/>
      <point x="456" y="-214" type="line"/>
    </contour>
    <component base="t.sc"/>
  </outline>
</glyph>
<glyph name="verticalbar-cy.case" format="2">
  <advance width="190"/>
  <outline>
    <contour>
      <point x="50" y="188" type="line"/>
      <point x="140" y="188" type="line"/>
      <point x="140" y="545" type="line"/>
      <point x="50" y="545" type="line"/>
    </contour>
  </outline>
</glyph>
